<svg width="240" height="240" viewBox="0 0 240 240" fill="none" xmlns="http://www.w3.org/2000/svg">
  <rect width="240" height="240" rx="40" fill="#F1F2F6"/>
  <rect x="22" y="22" width="196" height="196" rx="32" fill="url(#paint0_linear)"/>
  <path d="M86 164L112 58H188L162 164H86Z" fill="#1B212B"/>
  <path d="M70 176L96 70H170L144 176H70Z" fill="#7A522C"/>
  <path d="M54 188L80 82H154L128 188H54Z" fill="#F6F7FB"/>
  <path d="M54 188H128L122 198H48L54 188Z" fill="#D8DCE6"/>
  <rect x="74" y="104" width="58" height="8" rx="4" fill="#C7CBD6"/>
  <rect x="70" y="124" width="54" height="8" rx="4" fill="#D4B380"/>
  <rect x="66" y="144" width="52" height="8" rx="4" fill="#9098AA"/>
  <defs>
    <linearGradient id="paint0_linear" x1="40" y1="28" x2="210" y2="214" gradientUnits="userSpaceOnUse">
      <stop stop-color="#DADCE3"/>
      <stop offset="1" stop-color="#A9AFBE"/>
    </linearGradient>
  </defs>
</svg>
